<mxfile host="app.diagrams.net" modified="2023-01-25T21:57:28.953Z" agent="5.0 (Windows NT 10.0; Win64; x64) AppleWebKit/537.36 (KHTML, like Gecko) Chrome/109.0.0.0 Safari/537.36" etag="Svoa1Sctd1QpeIsKTbbh" version="20.8.11" type="github">
  <diagram name="Page-1" id="BNxIvdUrdh1f9PgUtB9O">
    <mxGraphModel dx="746" dy="826" grid="1" gridSize="10" guides="1" tooltips="1" connect="1" arrows="1" fold="1" page="1" pageScale="1" pageWidth="850" pageHeight="1100" math="0" shadow="0">
      <root>
        <mxCell id="0" />
        <mxCell id="1" parent="0" />
        <mxCell id="czKW240-1u4zhD5a85al-1" value="start" style="ellipse;whiteSpace=wrap;html=1;aspect=fixed;" vertex="1" parent="1">
          <mxGeometry x="385" y="80" width="80" height="80" as="geometry" />
        </mxCell>
        <mxCell id="czKW240-1u4zhD5a85al-2" value="connect the humidity and temperature senser to the PI&#39;s GPIO pins" style="rounded=1;whiteSpace=wrap;html=1;" vertex="1" parent="1">
          <mxGeometry x="365" y="210" width="120" height="60" as="geometry" />
        </mxCell>
        <mxCell id="czKW240-1u4zhD5a85al-3" value="read one instance of data" style="rounded=1;whiteSpace=wrap;html=1;" vertex="1" parent="1">
          <mxGeometry x="365" y="320" width="120" height="60" as="geometry" />
        </mxCell>
        <mxCell id="czKW240-1u4zhD5a85al-4" value="log temperature and humidity data form more than 1 minutes and save it into a csv file with timestamp" style="rounded=1;whiteSpace=wrap;html=1;" vertex="1" parent="1">
          <mxGeometry x="313" y="440" width="225" height="60" as="geometry" />
        </mxCell>
        <mxCell id="czKW240-1u4zhD5a85al-5" value="load csv data to google colab" style="rounded=1;whiteSpace=wrap;html=1;" vertex="1" parent="1">
          <mxGeometry x="365.5" y="580" width="120" height="60" as="geometry" />
        </mxCell>
        <mxCell id="czKW240-1u4zhD5a85al-6" value="start lab 1" style="endArrow=classic;html=1;rounded=0;exitX=0.5;exitY=1;exitDx=0;exitDy=0;entryX=0.5;entryY=0;entryDx=0;entryDy=0;" edge="1" parent="1" source="czKW240-1u4zhD5a85al-1" target="czKW240-1u4zhD5a85al-2">
          <mxGeometry width="50" height="50" relative="1" as="geometry">
            <mxPoint x="360" y="250" as="sourcePoint" />
            <mxPoint x="410" y="200" as="targetPoint" />
          </mxGeometry>
        </mxCell>
        <mxCell id="czKW240-1u4zhD5a85al-7" value="" style="endArrow=classic;html=1;rounded=0;exitX=0.5;exitY=1;exitDx=0;exitDy=0;entryX=0.5;entryY=0;entryDx=0;entryDy=0;" edge="1" parent="1" source="czKW240-1u4zhD5a85al-2" target="czKW240-1u4zhD5a85al-3">
          <mxGeometry width="50" height="50" relative="1" as="geometry">
            <mxPoint x="360" y="510" as="sourcePoint" />
            <mxPoint x="370" y="310" as="targetPoint" />
          </mxGeometry>
        </mxCell>
        <mxCell id="czKW240-1u4zhD5a85al-8" value="" style="endArrow=classic;html=1;rounded=0;exitX=0.5;exitY=1;exitDx=0;exitDy=0;entryX=0.5;entryY=0;entryDx=0;entryDy=0;" edge="1" parent="1" source="czKW240-1u4zhD5a85al-3" target="czKW240-1u4zhD5a85al-4">
          <mxGeometry width="50" height="50" relative="1" as="geometry">
            <mxPoint x="360" y="510" as="sourcePoint" />
            <mxPoint x="410" y="460" as="targetPoint" />
          </mxGeometry>
        </mxCell>
        <mxCell id="czKW240-1u4zhD5a85al-9" value="" style="endArrow=classic;html=1;rounded=0;exitX=0.5;exitY=1;exitDx=0;exitDy=0;entryX=0.5;entryY=0;entryDx=0;entryDy=0;" edge="1" parent="1" source="czKW240-1u4zhD5a85al-4" target="czKW240-1u4zhD5a85al-5">
          <mxGeometry width="50" height="50" relative="1" as="geometry">
            <mxPoint x="360" y="510" as="sourcePoint" />
            <mxPoint x="410" y="460" as="targetPoint" />
          </mxGeometry>
        </mxCell>
        <mxCell id="czKW240-1u4zhD5a85al-10" value="continue to lab 1.1" style="edgeLabel;html=1;align=center;verticalAlign=middle;resizable=0;points=[];" vertex="1" connectable="0" parent="czKW240-1u4zhD5a85al-9">
          <mxGeometry x="0.35" relative="1" as="geometry">
            <mxPoint y="-14" as="offset" />
          </mxGeometry>
        </mxCell>
        <mxCell id="czKW240-1u4zhD5a85al-11" value="plot temperature data with matplotlib" style="rounded=1;whiteSpace=wrap;html=1;" vertex="1" parent="1">
          <mxGeometry x="365.5" y="700" width="120" height="60" as="geometry" />
        </mxCell>
        <mxCell id="czKW240-1u4zhD5a85al-12" value="plot both temperature&amp;nbsp; and humidity data with matplotlib" style="rounded=1;whiteSpace=wrap;html=1;" vertex="1" parent="1">
          <mxGeometry x="365.5" y="830" width="120" height="60" as="geometry" />
        </mxCell>
        <mxCell id="czKW240-1u4zhD5a85al-15" value="" style="ellipse;whiteSpace=wrap;html=1;aspect=fixed;" vertex="1" parent="1">
          <mxGeometry x="360" y="935" width="130" height="130" as="geometry" />
        </mxCell>
        <mxCell id="czKW240-1u4zhD5a85al-14" value="lab end" style="ellipse;whiteSpace=wrap;html=1;aspect=fixed;" vertex="1" parent="1">
          <mxGeometry x="385" y="960" width="80" height="80" as="geometry" />
        </mxCell>
        <mxCell id="czKW240-1u4zhD5a85al-16" value="" style="endArrow=classic;html=1;rounded=0;exitX=0.5;exitY=1;exitDx=0;exitDy=0;entryX=0.5;entryY=0;entryDx=0;entryDy=0;" edge="1" parent="1" source="czKW240-1u4zhD5a85al-12" target="czKW240-1u4zhD5a85al-14">
          <mxGeometry width="50" height="50" relative="1" as="geometry">
            <mxPoint x="360" y="1040" as="sourcePoint" />
            <mxPoint x="410" y="990" as="targetPoint" />
          </mxGeometry>
        </mxCell>
        <mxCell id="czKW240-1u4zhD5a85al-17" value="" style="endArrow=classic;html=1;rounded=0;exitX=0.5;exitY=1;exitDx=0;exitDy=0;entryX=0.5;entryY=0;entryDx=0;entryDy=0;" edge="1" parent="1" source="czKW240-1u4zhD5a85al-5" target="czKW240-1u4zhD5a85al-11">
          <mxGeometry width="50" height="50" relative="1" as="geometry">
            <mxPoint x="360" y="810" as="sourcePoint" />
            <mxPoint x="410" y="760" as="targetPoint" />
          </mxGeometry>
        </mxCell>
        <mxCell id="czKW240-1u4zhD5a85al-18" value="" style="endArrow=classic;html=1;rounded=0;entryX=0.5;entryY=0;entryDx=0;entryDy=0;exitX=0.5;exitY=1;exitDx=0;exitDy=0;" edge="1" parent="1" source="czKW240-1u4zhD5a85al-11" target="czKW240-1u4zhD5a85al-12">
          <mxGeometry width="50" height="50" relative="1" as="geometry">
            <mxPoint x="360" y="810" as="sourcePoint" />
            <mxPoint x="410" y="760" as="targetPoint" />
          </mxGeometry>
        </mxCell>
      </root>
    </mxGraphModel>
  </diagram>
</mxfile>
